<svg width="1133" height="73" viewBox="0 0 1133 73" fill="none" xmlns="http://www.w3.org/2000/svg">
<path d="M710.472 17.1494L480.591 14.0715V20.2275L710.472 17.1494Z" stroke="#B3B3B3" stroke-width="0.274802" stroke-linecap="round" stroke-linejoin="round"/>
<path d="M710.472 17.1494L480.591 20.2275H940.396L710.472 17.1494Z" stroke="#B3B3B3" stroke-width="0.274802" stroke-linecap="round" stroke-linejoin="round"/>
<path d="M710.472 17.1494L940.395 20.2275V14.0715L710.472 17.1494Z" stroke="#B3B3B3" stroke-width="0.274802" stroke-linecap="round" stroke-linejoin="round"/>
<path d="M710.472 17.1494L940.396 14.0715H480.591L710.472 17.1494Z" stroke="#B3B3B3" stroke-width="0.274802" stroke-linecap="round" stroke-linejoin="round"/>
<path d="M955.478 20.2277H940.396V12.0334L955.478 15.8186V20.2277Z" stroke="#B3B3B3" stroke-width="0.274802" stroke-linecap="round" stroke-linejoin="round"/>
<path d="M952.486 9.91234L945.797 8.24854L944.924 11.784L951.613 13.4478L952.486 9.91234Z" stroke="#B3B3B3" stroke-width="0.274802" stroke-linecap="round" stroke-linejoin="round"/>
<path d="M943.304 11.3682L942.972 12.6991L952.901 15.1949L953.234 13.8637L943.304 11.3682Z" stroke="#B3B3B3" stroke-width="0.274802" stroke-linecap="round" stroke-linejoin="round"/>
<path d="M480.591 20.2278H955.477" stroke="#B3B3B3" stroke-width="0.274802" stroke-linecap="round" stroke-linejoin="round"/>
<path d="M940.396 14.0715H480.591V23.347" stroke="#B3B3B3" stroke-width="0.274802" stroke-linecap="round" stroke-linejoin="round"/>
<path d="M906.285 14.0299L906.243 13.6141L906.036 13.2396L905.745 12.99L905.371 12.7821L904.997 12.7405L904.582 12.7821L904.208 12.99L903.917 13.2396L903.709 13.6141L903.667 14.0299" stroke="#B3B3B3" stroke-width="0.274802" stroke-linecap="round" stroke-linejoin="round"/>
<path d="M955.477 20.2278L1132.14 58.1618" stroke="#B3B3B3" stroke-width="0.274802" stroke-linecap="round" stroke-linejoin="round"/>
<path d="M1129.6 69.9744L1132.14 58.1616" stroke="#B3B3B3" stroke-width="0.274802" stroke-linecap="round" stroke-linejoin="round"/>
<path d="M951.489 33.2051L571.123 34.7024" stroke="#B3B3B3" stroke-width="0.274802" stroke-linecap="round" stroke-linejoin="round"/>
<path d="M1129.6 69.9745L962 34.2865L959.383 33.8289L956.765 33.4545L954.148 33.2883L951.489 33.2051" stroke="#B3B3B3" stroke-width="0.274802" stroke-linecap="round" stroke-linejoin="round"/>
<path d="M996.36 21.1426L995.404 25.6348" stroke="#B3B3B3" stroke-width="0.274802" stroke-linecap="round" stroke-linejoin="round"/>
<path d="M1001.14 26.8826L1002.09 22.3905L996.36 21.1426" stroke="#B3B3B3" stroke-width="0.274802" stroke-linecap="round" stroke-linejoin="round"/>
<path d="M997.814 14.3213L1003.55 15.5275L1002.84 14.9867L1002.09 14.5709L1001.26 14.2381L1000.43 14.0717L999.559 14.03L998.686 14.1132L997.814 14.3213Z" stroke="#B3B3B3" stroke-width="0.274802" stroke-linecap="round" stroke-linejoin="round"/>
<path d="M1003.38 16.2761L997.648 15.0698" stroke="#B3B3B3" stroke-width="0.274802" stroke-linecap="round" stroke-linejoin="round"/>
<path d="M996.36 21.1426L997.025 20.4772L997.523 19.6869L997.897 18.7718L998.105 17.8567V16.9L997.98 15.9849L997.648 15.0698" stroke="#B3B3B3" stroke-width="0.274802" stroke-linecap="round" stroke-linejoin="round"/>
<path d="M1003.38 16.2759L1002.72 16.983L1002.22 17.7734L1001.84 18.6469L1001.64 19.6035V20.5185L1001.76 21.4752L1002.09 22.3904" stroke="#B3B3B3" stroke-width="0.274802" stroke-linecap="round" stroke-linejoin="round"/>
<path d="M997.648 15.0688L997.814 14.321" stroke="#B3B3B3" stroke-width="0.274802" stroke-linecap="round" stroke-linejoin="round"/>
<path d="M1003.55 15.5276L1003.38 16.2753" stroke="#B3B3B3" stroke-width="0.274802" stroke-linecap="round" stroke-linejoin="round"/>
<path d="M993.078 28.3384L1002.18 30.2517L1002.8 27.2154L993.742 25.302L993.078 28.3384Z" stroke="#B3B3B3" stroke-width="0.274802" stroke-linecap="round" stroke-linejoin="round"/>
<path d="M1003.55 15.5275L1002.84 14.9867L1002.09 14.5709L1001.26 14.2381L1000.43 14.0717L999.559 14.03L998.686 14.1132L997.814 14.3213" stroke="#B3B3B3" stroke-width="0.274802" stroke-linecap="round" stroke-linejoin="round"/>
<path d="M179.997 23.3469H545.156V66.6884H179.997L168.733 57.4128V32.6225L179.997 23.3469Z" stroke="#B3B3B3" stroke-width="0.274802" stroke-linecap="round" stroke-linejoin="round"/>
<path d="M179.997 66.6886H44.9655L0.137207 57.413V32.6227L44.9655 23.3472H179.997" stroke="#B3B3B3" stroke-width="0.274802" stroke-linecap="round" stroke-linejoin="round"/>
<path d="M324.041 22.0161V19.5205H287.937V22.0161H324.041Z" stroke="#B3B3B3" stroke-width="0.274802" stroke-linecap="round" stroke-linejoin="round"/>
<path d="M295.331 56.4564V50.0508" stroke="#B3B3B3" stroke-width="0.274802" stroke-linecap="round" stroke-linejoin="round"/>
<path d="M295.331 46.9727V40.7751" stroke="#B3B3B3" stroke-width="0.274802" stroke-linecap="round" stroke-linejoin="round"/>
<path d="M295.331 37.6973V31.4998" stroke="#B3B3B3" stroke-width="0.274802" stroke-linecap="round" stroke-linejoin="round"/>
<path d="M295.331 28.3803V22.0164H303.104V28.3803" stroke="#B3B3B3" stroke-width="0.274802" stroke-linecap="round" stroke-linejoin="round"/>
<path d="M303.104 31.4998V37.6973" stroke="#B3B3B3" stroke-width="0.274802" stroke-linecap="round" stroke-linejoin="round"/>
<path d="M303.104 40.7751V46.9727" stroke="#B3B3B3" stroke-width="0.274802" stroke-linecap="round" stroke-linejoin="round"/>
<path d="M303.104 50.0508V56.4564H295.331" stroke="#B3B3B3" stroke-width="0.274802" stroke-linecap="round" stroke-linejoin="round"/>
<path d="M319.058 19.5204V15.7768H310.624V11.9086L308.666 10.6191H303.267L301.439 11.9086V19.5204" stroke="#B3B3B3" stroke-width="0.274802" stroke-linecap="round" stroke-linejoin="round"/>
<path d="M319.058 15.7769V13.0732H313.781V15.7769H319.058Z" stroke="#B3B3B3" stroke-width="0.274802" stroke-linecap="round" stroke-linejoin="round"/>
<path d="M305.763 14.8204L305.673 14.3629L305.469 13.9469L305.135 13.6143L304.719 13.4062L304.221 13.323L303.765 13.4062L303.348 13.6143L303.014 13.9469L302.81 14.3629L302.729 14.8204L302.81 15.3195L303.014 15.7355L303.348 16.0684L303.765 16.2762L304.221 16.3594L304.719 16.2762L305.135 16.0684L305.469 15.7355L305.673 15.3195L305.763 14.8204Z" stroke="#B3B3B3" stroke-width="0.274802" stroke-linecap="round" stroke-linejoin="round"/>
<path d="M301.44 19.5204V10.6191H287.606L286.603 11.4511V17.9813L287.933 19.5204H301.44Z" stroke="#B3B3B3" stroke-width="0.274802" stroke-linecap="round" stroke-linejoin="round"/>
<path d="M255.657 19.2293V12.3247H252V19.2293H255.657Z" stroke="#B3B3B3" stroke-width="0.274802" stroke-linecap="round" stroke-linejoin="round"/>
<path d="M255.657 17.5239H286.603" stroke="#B3B3B3" stroke-width="0.274802" stroke-linecap="round" stroke-linejoin="round"/>
<path d="M255.657 14.03H286.603" stroke="#B3B3B3" stroke-width="0.274802" stroke-linecap="round" stroke-linejoin="round"/>
<path d="M287.932 22.0161H285.983L285.192 21.7666L284.197 21.0179L272.108 8.95557" stroke="#B3B3B3" stroke-width="0.274802" stroke-linecap="round" stroke-linejoin="round"/>
<path d="M287.933 19.5206H286.358L285.82 19.1046L273.683 7.00056L273.185 6.62626L272.606 6.41825L271.978 6.37671L271.399 6.50145L265.461 8.87244" stroke="#B3B3B3" stroke-width="0.274802" stroke-linecap="round" stroke-linejoin="round"/>
<path d="M272.109 8.95549L266.375 11.2016L265.461 8.87231" stroke="#B3B3B3" stroke-width="0.274802" stroke-linecap="round" stroke-linejoin="round"/>
<path d="M262.843 6.33508L272.484 2.5083" stroke="#B3B3B3" stroke-width="0.274802" stroke-linecap="round" stroke-linejoin="round"/>
<path d="M262.802 3.09057L270.322 0.137451" stroke="#B3B3B3" stroke-width="0.274802" stroke-linecap="round" stroke-linejoin="round"/>
<path d="M272.484 2.50835L271.774 0.636719" stroke="#B3B3B3" stroke-width="0.274802" stroke-linecap="round" stroke-linejoin="round"/>
<path d="M262.843 6.33517L262.093 4.46338" stroke="#B3B3B3" stroke-width="0.274802" stroke-linecap="round" stroke-linejoin="round"/>
<path d="M271.774 0.63609L270.322 0.137451" stroke="#B3B3B3" stroke-width="0.274802" stroke-linecap="round" stroke-linejoin="round"/>
<path d="M262.093 4.46327L262.803 3.09058" stroke="#B3B3B3" stroke-width="0.274802" stroke-linecap="round" stroke-linejoin="round"/>
<path d="M272.525 12.4911L271.277 9.24658" stroke="#B3B3B3" stroke-width="0.274802" stroke-linecap="round" stroke-linejoin="round"/>
<path d="M269.613 13.6554L268.324 10.4111" stroke="#B3B3B3" stroke-width="0.274802" stroke-linecap="round" stroke-linejoin="round"/>
<path d="M273.356 12.1583L272.108 8.95557" stroke="#B3B3B3" stroke-width="0.274802" stroke-linecap="round" stroke-linejoin="round"/>
<path d="M268.781 13.9886L267.492 10.7441" stroke="#B3B3B3" stroke-width="0.274802" stroke-linecap="round" stroke-linejoin="round"/>
<path d="M265.747 6.25199L270.322 4.46338" stroke="#B3B3B3" stroke-width="0.274802" stroke-linecap="round" stroke-linejoin="round"/>
<path d="M270.363 6.91746L269.115 3.8396" stroke="#B3B3B3" stroke-width="0.274802" stroke-linecap="round" stroke-linejoin="round"/>
<path d="M271.154 6.58465L270.322 4.46338" stroke="#B3B3B3" stroke-width="0.274802" stroke-linecap="round" stroke-linejoin="round"/>
<path d="M267.41 8.08202L266.203 5.00391" stroke="#B3B3B3" stroke-width="0.274802" stroke-linecap="round" stroke-linejoin="round"/>
<path d="M266.579 8.41461L265.747 6.25171" stroke="#B3B3B3" stroke-width="0.274802" stroke-linecap="round" stroke-linejoin="round"/>
<path d="M268.781 13.9886L273.356 12.1584" stroke="#B3B3B3" stroke-width="0.274802" stroke-linecap="round" stroke-linejoin="round"/>
<path d="M262.093 4.46333L271.775 0.636719" stroke="#B3B3B3" stroke-width="0.274802" stroke-linecap="round" stroke-linejoin="round"/>
<path d="M306.595 22.6394V22.1409L286.48 22.6394H306.595Z" stroke="#B3B3B3" stroke-width="0.274802" stroke-linecap="round" stroke-linejoin="round"/>
<path d="M306.595 22.1409L286.481 22.6394L286.399 22.1409H306.595Z" stroke="#B3B3B3" stroke-width="0.274802" stroke-linecap="round" stroke-linejoin="round"/>
<path d="M286.48 22.6394L286.399 22.1409L285.82 22.8472L286.48 22.6394Z" stroke="#B3B3B3" stroke-width="0.274802" stroke-linecap="round" stroke-linejoin="round"/>
<path d="M286.399 22.1409L285.82 22.8472L285.73 22.3902L286.399 22.1409Z" stroke="#B3B3B3" stroke-width="0.274802" stroke-linecap="round" stroke-linejoin="round"/>
<path d="M285.82 22.8474L285.73 22.3904L285.029 22.9719L285.82 22.8474Z" stroke="#B3B3B3" stroke-width="0.274802" stroke-linecap="round" stroke-linejoin="round"/>
<path d="M285.73 22.3904L285.029 22.9719L284.988 22.4735L285.73 22.3904Z" stroke="#B3B3B3" stroke-width="0.274802" stroke-linecap="round" stroke-linejoin="round"/>
<path d="M285.029 22.9721L284.988 22.4736L283.993 22.9306L285.029 22.9721Z" stroke="#B3B3B3" stroke-width="0.274802" stroke-linecap="round" stroke-linejoin="round"/>
<path d="M284.988 22.4736L283.993 22.9306V22.4736H284.988Z" stroke="#B3B3B3" stroke-width="0.274802" stroke-linecap="round" stroke-linejoin="round"/>
<path d="M283.993 22.9306V22.4736L282.867 22.8891L283.993 22.9306Z" stroke="#B3B3B3" stroke-width="0.274802" stroke-linecap="round" stroke-linejoin="round"/>
<path d="M283.993 22.4735L282.867 22.8889L282.908 22.3904L283.993 22.4735Z" stroke="#B3B3B3" stroke-width="0.274802" stroke-linecap="round" stroke-linejoin="round"/>
<path d="M282.867 22.8889L282.908 22.3904L281.791 22.6811L282.867 22.8889Z" stroke="#B3B3B3" stroke-width="0.274802" stroke-linecap="round" stroke-linejoin="round"/>
<path d="M282.908 22.3904L281.791 22.6811L281.913 22.2241L282.908 22.3904Z" stroke="#B3B3B3" stroke-width="0.274802" stroke-linecap="round" stroke-linejoin="round"/>
<path d="M281.79 22.6817L281.912 22.2242L268.324 17.9399L281.79 22.6817Z" stroke="#B3B3B3" stroke-width="0.274802" stroke-linecap="round" stroke-linejoin="round"/>
<path d="M281.913 22.2241L268.324 17.9399L268.161 17.3577L281.913 22.2241Z" stroke="#B3B3B3" stroke-width="0.274802" stroke-linecap="round" stroke-linejoin="round"/>
<path d="M268.324 17.9399L268.161 17.3577L266.995 19.8949L268.324 17.9399Z" stroke="#B3B3B3" stroke-width="0.274802" stroke-linecap="round" stroke-linejoin="round"/>
<path d="M268.161 17.3577L266.994 19.8949L266.619 19.6452L268.161 17.3577Z" stroke="#B3B3B3" stroke-width="0.274802" stroke-linecap="round" stroke-linejoin="round"/>
<path d="M328.65 23.3469V29.1702H321.423" stroke="#B3B3B3" stroke-width="0.274802" stroke-linecap="round" stroke-linejoin="round"/>
<path d="M318.307 29.1704H311.122V36.1166" stroke="#B3B3B3" stroke-width="0.274802" stroke-linecap="round" stroke-linejoin="round"/>
<path d="M311.122 39.1948V46.1411H316.774" stroke="#B3B3B3" stroke-width="0.274802" stroke-linecap="round" stroke-linejoin="round"/>
<path d="M319.841 46.1406H326.032" stroke="#B3B3B3" stroke-width="0.274802" stroke-linecap="round" stroke-linejoin="round"/>
<path d="M329.107 46.1406H335.296" stroke="#B3B3B3" stroke-width="0.274802" stroke-linecap="round" stroke-linejoin="round"/>
<path d="M338.412 46.1406H344.603" stroke="#B3B3B3" stroke-width="0.274802" stroke-linecap="round" stroke-linejoin="round"/>
<path d="M347.677 46.1406H353.871" stroke="#B3B3B3" stroke-width="0.274802" stroke-linecap="round" stroke-linejoin="round"/>
<path d="M356.946 46.1406H363.136" stroke="#B3B3B3" stroke-width="0.274802" stroke-linecap="round" stroke-linejoin="round"/>
<path d="M366.252 46.1406H372.443" stroke="#B3B3B3" stroke-width="0.274802" stroke-linecap="round" stroke-linejoin="round"/>
<path d="M375.518 46.1406H381.708" stroke="#B3B3B3" stroke-width="0.274802" stroke-linecap="round" stroke-linejoin="round"/>
<path d="M384.783 46.1406H390.973" stroke="#B3B3B3" stroke-width="0.274802" stroke-linecap="round" stroke-linejoin="round"/>
<path d="M394.089 46.1406H400.28" stroke="#B3B3B3" stroke-width="0.274802" stroke-linecap="round" stroke-linejoin="round"/>
<path d="M403.354 46.1406H409.005V50.2169" stroke="#B3B3B3" stroke-width="0.274802" stroke-linecap="round" stroke-linejoin="round"/>
<path d="M409.004 53.2952V59.4927" stroke="#B3B3B3" stroke-width="0.274802" stroke-linecap="round" stroke-linejoin="round"/>
<path d="M409.004 62.6121V66.6883" stroke="#B3B3B3" stroke-width="0.274802" stroke-linecap="round" stroke-linejoin="round"/>
<path d="M286.733 66.6886V61.6973" stroke="#B3B3B3" stroke-width="0.274802" stroke-linecap="round" stroke-linejoin="round"/>
<path d="M286.733 58.619V52.4214" stroke="#B3B3B3" stroke-width="0.274802" stroke-linecap="round" stroke-linejoin="round"/>
<path d="M286.733 49.302V43.1045" stroke="#B3B3B3" stroke-width="0.274802" stroke-linecap="round" stroke-linejoin="round"/>
<path d="M286.733 40.0267V35.0354" stroke="#B3B3B3" stroke-width="0.274802" stroke-linecap="round" stroke-linejoin="round"/>
<path d="M414.863 66.6886V63.7354H408.755" stroke="#B3B3B3" stroke-width="0.274802" stroke-linecap="round" stroke-linejoin="round"/>
<path d="M405.681 63.7354H399.49" stroke="#B3B3B3" stroke-width="0.274802" stroke-linecap="round" stroke-linejoin="round"/>
<path d="M396.374 63.7354H390.184" stroke="#B3B3B3" stroke-width="0.274802" stroke-linecap="round" stroke-linejoin="round"/>
<path d="M387.109 63.7354H380.919" stroke="#B3B3B3" stroke-width="0.274802" stroke-linecap="round" stroke-linejoin="round"/>
<path d="M377.844 63.7354H371.653" stroke="#B3B3B3" stroke-width="0.274802" stroke-linecap="round" stroke-linejoin="round"/>
<path d="M368.538 63.7354H362.344" stroke="#B3B3B3" stroke-width="0.274802" stroke-linecap="round" stroke-linejoin="round"/>
<path d="M359.269 63.7354H353.079" stroke="#B3B3B3" stroke-width="0.274802" stroke-linecap="round" stroke-linejoin="round"/>
<path d="M350.011 63.7354H343.82" stroke="#B3B3B3" stroke-width="0.274802" stroke-linecap="round" stroke-linejoin="round"/>
<path d="M340.697 63.7354H334.555" stroke="#B3B3B3" stroke-width="0.274802" stroke-linecap="round" stroke-linejoin="round"/>
<path d="M331.439 63.7354H325.249" stroke="#B3B3B3" stroke-width="0.274802" stroke-linecap="round" stroke-linejoin="round"/>
<path d="M322.173 63.7354H315.983" stroke="#B3B3B3" stroke-width="0.274802" stroke-linecap="round" stroke-linejoin="round"/>
<path d="M312.867 63.7354H306.717" stroke="#B3B3B3" stroke-width="0.274802" stroke-linecap="round" stroke-linejoin="round"/>
<path d="M303.601 63.7354H297.41" stroke="#B3B3B3" stroke-width="0.274802" stroke-linecap="round" stroke-linejoin="round"/>
<path d="M294.335 63.7354H288.145" stroke="#B3B3B3" stroke-width="0.274802" stroke-linecap="round" stroke-linejoin="round"/>
<path d="M285.029 63.7354H278.96V66.6886H285.029" stroke="#B3B3B3" stroke-width="0.274802" stroke-linecap="round" stroke-linejoin="round"/>
<path d="M288.145 66.6885H294.335" stroke="#B3B3B3" stroke-width="0.274802" stroke-linecap="round" stroke-linejoin="round"/>
<path d="M297.41 66.6885H303.601" stroke="#B3B3B3" stroke-width="0.274802" stroke-linecap="round" stroke-linejoin="round"/>
<path d="M306.717 66.6885H312.867" stroke="#B3B3B3" stroke-width="0.274802" stroke-linecap="round" stroke-linejoin="round"/>
<path d="M315.983 66.6885H322.173" stroke="#B3B3B3" stroke-width="0.274802" stroke-linecap="round" stroke-linejoin="round"/>
<path d="M325.249 66.6885H331.439" stroke="#B3B3B3" stroke-width="0.274802" stroke-linecap="round" stroke-linejoin="round"/>
<path d="M334.555 66.6885H340.697" stroke="#B3B3B3" stroke-width="0.274802" stroke-linecap="round" stroke-linejoin="round"/>
<path d="M343.82 66.6885H350.011" stroke="#B3B3B3" stroke-width="0.274802" stroke-linecap="round" stroke-linejoin="round"/>
<path d="M353.079 66.6885H359.269" stroke="#B3B3B3" stroke-width="0.274802" stroke-linecap="round" stroke-linejoin="round"/>
<path d="M362.344 66.6885H368.538" stroke="#B3B3B3" stroke-width="0.274802" stroke-linecap="round" stroke-linejoin="round"/>
<path d="M371.653 66.6885H377.844" stroke="#B3B3B3" stroke-width="0.274802" stroke-linecap="round" stroke-linejoin="round"/>
<path d="M380.919 66.6885H387.109" stroke="#B3B3B3" stroke-width="0.274802" stroke-linecap="round" stroke-linejoin="round"/>
<path d="M390.184 66.6885H396.374" stroke="#B3B3B3" stroke-width="0.274802" stroke-linecap="round" stroke-linejoin="round"/>
<path d="M399.49 66.6885H405.681" stroke="#B3B3B3" stroke-width="0.274802" stroke-linecap="round" stroke-linejoin="round"/>
<path d="M408.755 66.6885H414.863" stroke="#B3B3B3" stroke-width="0.274802" stroke-linecap="round" stroke-linejoin="round"/>
<path d="M376.057 23.3471V18.6885H332.765V23.3471H376.057Z" stroke="#B3B3B3" stroke-width="0.274802" stroke-linecap="round" stroke-linejoin="round"/>
<path d="M250.249 23.3469V27.6312" stroke="#B3B3B3" stroke-width="0.274802" stroke-linecap="round" stroke-linejoin="round"/>
<path d="M250.249 30.751V35.0352H257.688" stroke="#B3B3B3" stroke-width="0.274802" stroke-linecap="round" stroke-linejoin="round"/>
<path d="M260.763 35.0354H266.954" stroke="#B3B3B3" stroke-width="0.274802" stroke-linecap="round" stroke-linejoin="round"/>
<path d="M270.029 35.0354H276.22" stroke="#B3B3B3" stroke-width="0.274802" stroke-linecap="round" stroke-linejoin="round"/>
<path d="M279.335 35.0354H286.733" stroke="#B3B3B3" stroke-width="0.274802" stroke-linecap="round" stroke-linejoin="round"/>
<path d="M303.307 5.91919L304.099 12.1584L301.317 6.54304L303.307 5.91919Z" stroke="#B3B3B3" stroke-width="0.274802" stroke-linecap="round" stroke-linejoin="round"/>
<path d="M480.591 23.3471V18.6885H437.298V23.3471H480.591Z" stroke="#B3B3B3" stroke-width="0.274802" stroke-linecap="round" stroke-linejoin="round"/>
<path d="M511.918 26.425L168.733 32.6226" stroke="#B3B3B3" stroke-width="0.274802" stroke-linecap="round" stroke-linejoin="round"/>
<path d="M511.918 63.6107L168.733 57.4131" stroke="#B3B3B3" stroke-width="0.274802" stroke-linecap="round" stroke-linejoin="round"/>
<path d="M511.917 26.4249L512.499 23.3469" stroke="#B3B3B3" stroke-width="0.274802" stroke-linecap="round" stroke-linejoin="round"/>
<path d="M512.499 66.6885L511.917 63.6105V26.425" stroke="#B3B3B3" stroke-width="0.274802" stroke-linecap="round" stroke-linejoin="round"/>
<path d="M0.137207 32.6226L44.1743 30.335L66.1969 29.2951L88.2197 28.4216L110.283 27.7145L132.297 27.1322L176.425 26.3003" stroke="#B3B3B3" stroke-width="0.274802" stroke-linecap="round" stroke-linejoin="round"/>
<path d="M0.137207 57.4131L44.1743 59.7008L66.1969 60.7406L88.2197 61.6141L110.283 62.3212L132.297 62.9035L176.425 63.7354" stroke="#B3B3B3" stroke-width="0.274802" stroke-linecap="round" stroke-linejoin="round"/>
<path d="M571.122 34.7021L569.585 34.9102L568.089 35.3262L566.677 35.8668L565.306 36.6155L564.059 37.4475L562.896 38.4873L561.857 39.6103L560.943 40.8581L560.195 42.1892L559.572 43.6035L559.157 45.0592L558.866 46.5982L558.783 48.0956H545.155" stroke="#B3B3B3" stroke-width="0.274802" stroke-linecap="round" stroke-linejoin="round"/>
<path d="M437.298 48.0957H444.528" stroke="#B3B3B3" stroke-width="0.274802" stroke-linecap="round" stroke-linejoin="round"/>
<path d="M447.602 48.0957H453.793" stroke="#B3B3B3" stroke-width="0.274802" stroke-linecap="round" stroke-linejoin="round"/>
<path d="M456.867 48.0957H463.058" stroke="#B3B3B3" stroke-width="0.274802" stroke-linecap="round" stroke-linejoin="round"/>
<path d="M466.174 48.0957H472.364" stroke="#B3B3B3" stroke-width="0.274802" stroke-linecap="round" stroke-linejoin="round"/>
<path d="M475.439 48.0957H481.63" stroke="#B3B3B3" stroke-width="0.274802" stroke-linecap="round" stroke-linejoin="round"/>
<path d="M484.704 48.0957H490.895" stroke="#B3B3B3" stroke-width="0.274802" stroke-linecap="round" stroke-linejoin="round"/>
<path d="M494.011 48.0957H500.201" stroke="#B3B3B3" stroke-width="0.274802" stroke-linecap="round" stroke-linejoin="round"/>
<path d="M503.276 48.0957H509.466" stroke="#B3B3B3" stroke-width="0.274802" stroke-linecap="round" stroke-linejoin="round"/>
<path d="M512.541 48.0957H518.732" stroke="#B3B3B3" stroke-width="0.274802" stroke-linecap="round" stroke-linejoin="round"/>
<path d="M521.847 48.0957H528.038" stroke="#B3B3B3" stroke-width="0.274802" stroke-linecap="round" stroke-linejoin="round"/>
<path d="M531.113 48.0957H538.342" stroke="#B3B3B3" stroke-width="0.274802" stroke-linecap="round" stroke-linejoin="round"/>
<path d="M437.298 23.3469V29.5445" stroke="#B3B3B3" stroke-width="0.274802" stroke-linecap="round" stroke-linejoin="round"/>
<path d="M437.298 32.6226V38.8201" stroke="#B3B3B3" stroke-width="0.274802" stroke-linecap="round" stroke-linejoin="round"/>
<path d="M437.298 41.9399V48.0959" stroke="#B3B3B3" stroke-width="0.274802" stroke-linecap="round" stroke-linejoin="round"/>
<path d="M520.601 49.1357V66.2311" stroke="#B3B3B3" stroke-width="0.274802" stroke-linecap="round" stroke-linejoin="round"/>
<path d="M1015.43 25.2605L1014.47 29.7527" stroke="#B3B3B3" stroke-width="0.274802" stroke-linecap="round" stroke-linejoin="round"/>
<path d="M1020.17 30.9589L1021.12 26.4667L1015.43 25.2605" stroke="#B3B3B3" stroke-width="0.274802" stroke-linecap="round" stroke-linejoin="round"/>
<path d="M1016.88 18.3975L1022.58 19.6037L1021.91 19.0629L1021.12 18.647L1020.33 18.3558L1019.46 18.1479L1018.59 18.1062L1017.72 18.1894L1016.88 18.3975Z" stroke="#B3B3B3" stroke-width="0.274802" stroke-linecap="round" stroke-linejoin="round"/>
<path d="M1022.41 20.3939L1016.72 19.146" stroke="#B3B3B3" stroke-width="0.274802" stroke-linecap="round" stroke-linejoin="round"/>
<path d="M1015.43 25.2604L1016.05 24.5533L1016.59 23.763L1016.97 22.8896L1017.13 21.9329L1017.18 21.0178L1017.01 20.0611L1016.72 19.146" stroke="#B3B3B3" stroke-width="0.274802" stroke-linecap="round" stroke-linejoin="round"/>
<path d="M1022.41 20.394L1021.79 21.0595L1021.25 21.8498L1020.87 22.7648L1020.71 23.6799L1020.67 24.6366L1020.83 25.5517L1021.12 26.4667" stroke="#B3B3B3" stroke-width="0.274802" stroke-linecap="round" stroke-linejoin="round"/>
<path d="M1016.72 19.1452L1016.88 18.3975" stroke="#B3B3B3" stroke-width="0.274802" stroke-linecap="round" stroke-linejoin="round"/>
<path d="M1022.58 19.6038L1022.41 20.3932" stroke="#B3B3B3" stroke-width="0.274802" stroke-linecap="round" stroke-linejoin="round"/>
<path d="M1012.15 32.4146L1021.21 34.328L1021.87 31.3331L1012.77 29.3782L1012.15 32.4146Z" stroke="#B3B3B3" stroke-width="0.274802" stroke-linecap="round" stroke-linejoin="round"/>
<path d="M1019.54 46.6398L1017.59 55.7906L998.521 51.7559L1000.47 42.6052L1019.54 46.6398Z" stroke="#B3B3B3" stroke-width="0.274802" stroke-linecap="round" stroke-linejoin="round"/>
<path d="M1022.58 19.6037L1021.91 19.0629L1021.12 18.647L1020.33 18.3558L1019.46 18.1479L1018.59 18.1062L1017.72 18.1894L1016.88 18.3975" stroke="#B3B3B3" stroke-width="0.274802" stroke-linecap="round" stroke-linejoin="round"/>
<path d="M1034.46 29.3367L1033.5 33.8289" stroke="#B3B3B3" stroke-width="0.274802" stroke-linecap="round" stroke-linejoin="round"/>
<path d="M1039.24 35.0351L1040.19 30.5429L1034.46 29.3367" stroke="#B3B3B3" stroke-width="0.274802" stroke-linecap="round" stroke-linejoin="round"/>
<path d="M1035.91 22.4739L1041.65 23.68L1040.94 23.1809L1040.19 22.7234L1039.36 22.4322L1038.49 22.2243L1037.62 22.1826L1036.79 22.2658L1035.91 22.4739Z" stroke="#B3B3B3" stroke-width="0.274802" stroke-linecap="round" stroke-linejoin="round"/>
<path d="M1041.48 24.4699L1035.75 23.2637" stroke="#B3B3B3" stroke-width="0.274802" stroke-linecap="round" stroke-linejoin="round"/>
<path d="M1034.46 29.3365L1035.12 28.6293L1035.62 27.8391L1036 26.9657L1036.2 26.0506V25.0938L1036.08 24.1372L1035.75 23.2637" stroke="#B3B3B3" stroke-width="0.274802" stroke-linecap="round" stroke-linejoin="round"/>
<path d="M1041.48 24.4702L1040.82 25.1773L1040.32 25.9677L1039.94 26.8411L1039.74 27.7562L1039.69 28.7129L1039.86 29.6695L1040.19 30.543" stroke="#B3B3B3" stroke-width="0.274802" stroke-linecap="round" stroke-linejoin="round"/>
<path d="M1035.75 23.2629L1035.91 22.4736" stroke="#B3B3B3" stroke-width="0.274802" stroke-linecap="round" stroke-linejoin="round"/>
<path d="M1041.65 23.6799L1041.48 24.4693" stroke="#B3B3B3" stroke-width="0.274802" stroke-linecap="round" stroke-linejoin="round"/>
<path d="M1031.18 36.491L1040.28 38.446L1040.9 35.4096L1031.84 33.4546L1031.18 36.491Z" stroke="#B3B3B3" stroke-width="0.274802" stroke-linecap="round" stroke-linejoin="round"/>
<path d="M1041.65 23.68L1040.94 23.1809L1040.19 22.7234L1039.36 22.4322L1038.49 22.2243L1037.62 22.1826L1036.79 22.2658L1035.91 22.4739" stroke="#B3B3B3" stroke-width="0.274802" stroke-linecap="round" stroke-linejoin="round"/>
<path d="M1053.53 33.4131L1052.57 37.9053" stroke="#B3B3B3" stroke-width="0.274802" stroke-linecap="round" stroke-linejoin="round"/>
<path d="M1058.27 39.1116L1059.22 34.6193L1053.53 33.4131" stroke="#B3B3B3" stroke-width="0.274802" stroke-linecap="round" stroke-linejoin="round"/>
<path d="M1054.98 26.5498L1060.68 27.7977L1059.97 27.257L1059.22 26.841L1058.39 26.5083L1057.56 26.3419L1056.69 26.3003L1055.81 26.3419L1054.98 26.5498Z" stroke="#B3B3B3" stroke-width="0.274802" stroke-linecap="round" stroke-linejoin="round"/>
<path d="M1060.51 28.5463L1054.82 27.3401" stroke="#B3B3B3" stroke-width="0.274802" stroke-linecap="round" stroke-linejoin="round"/>
<path d="M1053.53 33.4129L1054.15 32.7473L1054.69 31.9155L1055.02 31.042L1055.23 30.127L1055.27 29.1703L1055.11 28.2552L1054.82 27.3401" stroke="#B3B3B3" stroke-width="0.274802" stroke-linecap="round" stroke-linejoin="round"/>
<path d="M1060.51 28.5464L1059.84 29.2535L1059.35 30.0438L1058.97 30.9173L1058.76 31.8324V32.789L1058.89 33.7457L1059.22 34.6192" stroke="#B3B3B3" stroke-width="0.274802" stroke-linecap="round" stroke-linejoin="round"/>
<path d="M1054.82 27.3392L1054.98 26.5498" stroke="#B3B3B3" stroke-width="0.274802" stroke-linecap="round" stroke-linejoin="round"/>
<path d="M1060.67 27.7976L1060.51 28.5454" stroke="#B3B3B3" stroke-width="0.274802" stroke-linecap="round" stroke-linejoin="round"/>
<path d="M1050.25 40.5674L1059.3 42.5223L1059.97 39.486L1050.87 37.5725L1050.25 40.5674Z" stroke="#B3B3B3" stroke-width="0.274802" stroke-linecap="round" stroke-linejoin="round"/>
<path d="M1060.68 27.7977L1059.97 27.257L1059.22 26.841L1058.39 26.5083L1057.56 26.3419L1056.69 26.3003L1055.81 26.3419L1054.98 26.5498" stroke="#B3B3B3" stroke-width="0.274802" stroke-linecap="round" stroke-linejoin="round"/>
<path d="M1072.56 37.4893L1071.6 41.9814" stroke="#B3B3B3" stroke-width="0.274802" stroke-linecap="round" stroke-linejoin="round"/>
<path d="M1077.29 43.2292L1078.25 38.737L1072.56 37.4893" stroke="#B3B3B3" stroke-width="0.274802" stroke-linecap="round" stroke-linejoin="round"/>
<path d="M1074.01 30.6676L1079.7 31.8739L1079.04 31.3331L1078.29 30.9172L1077.46 30.5844L1076.59 30.4181L1075.72 30.3765L1074.84 30.4596L1074.01 30.6676Z" stroke="#B3B3B3" stroke-width="0.274802" stroke-linecap="round" stroke-linejoin="round"/>
<path d="M1079.58 32.6641L1073.85 31.4163" stroke="#B3B3B3" stroke-width="0.274802" stroke-linecap="round" stroke-linejoin="round"/>
<path d="M1072.56 37.4891L1073.22 36.8235L1073.72 36.0333L1074.09 35.1598L1074.3 34.2031V33.2465L1074.18 32.3313L1073.85 31.4163" stroke="#B3B3B3" stroke-width="0.274802" stroke-linecap="round" stroke-linejoin="round"/>
<path d="M1079.58 32.6641L1078.91 33.3297L1078.37 34.1199L1078.04 34.9934L1077.83 35.9501L1077.79 36.9067L1077.96 37.8218L1078.25 38.7369" stroke="#B3B3B3" stroke-width="0.274802" stroke-linecap="round" stroke-linejoin="round"/>
<path d="M1073.85 31.4156L1074.01 30.6677" stroke="#B3B3B3" stroke-width="0.274802" stroke-linecap="round" stroke-linejoin="round"/>
<path d="M1079.7 31.874L1079.58 32.6634" stroke="#B3B3B3" stroke-width="0.274802" stroke-linecap="round" stroke-linejoin="round"/>
<path d="M1069.28 44.6851L1078.33 46.5983L1079 43.5619L1069.94 41.6487L1069.28 44.6851Z" stroke="#B3B3B3" stroke-width="0.274802" stroke-linecap="round" stroke-linejoin="round"/>
<path d="M1079.7 31.8739L1079.04 31.3331L1078.29 30.9172L1077.46 30.5844L1076.59 30.4181L1075.72 30.3765L1074.84 30.4596L1074.01 30.6676" stroke="#B3B3B3" stroke-width="0.274802" stroke-linecap="round" stroke-linejoin="round"/>
<path d="M1091.59 41.6069L1090.63 46.099" stroke="#B3B3B3" stroke-width="0.274802" stroke-linecap="round" stroke-linejoin="round"/>
<path d="M1096.36 47.3053L1097.32 42.8131L1091.59 41.6069" stroke="#B3B3B3" stroke-width="0.274802" stroke-linecap="round" stroke-linejoin="round"/>
<path d="M1093.04 34.744L1098.77 35.9503L1098.07 35.4096L1097.32 34.9936L1096.49 34.7024L1095.66 34.4945L1094.79 34.4529L1093.91 34.5361L1093.04 34.744Z" stroke="#B3B3B3" stroke-width="0.274802" stroke-linecap="round" stroke-linejoin="round"/>
<path d="M1098.61 36.7407L1092.87 35.5344" stroke="#B3B3B3" stroke-width="0.274802" stroke-linecap="round" stroke-linejoin="round"/>
<path d="M1091.59 41.6073L1092.25 40.9001L1092.79 40.1098L1093.12 39.2363L1093.33 38.2797L1093.37 37.3647L1093.21 36.408L1092.87 35.5344" stroke="#B3B3B3" stroke-width="0.274802" stroke-linecap="round" stroke-linejoin="round"/>
<path d="M1098.61 36.7405L1097.94 37.4061L1097.44 38.2379L1097.07 39.1114L1096.86 40.0264V40.9831L1096.99 41.8982L1097.32 42.8133" stroke="#B3B3B3" stroke-width="0.274802" stroke-linecap="round" stroke-linejoin="round"/>
<path d="M1092.87 35.5333L1093.04 34.7439" stroke="#B3B3B3" stroke-width="0.274802" stroke-linecap="round" stroke-linejoin="round"/>
<path d="M1098.77 35.9502L1098.61 36.7396" stroke="#B3B3B3" stroke-width="0.274802" stroke-linecap="round" stroke-linejoin="round"/>
<path d="M1088.3 48.7612L1097.4 50.6745L1098.03 47.6797L1088.97 45.7249L1088.3 48.7612Z" stroke="#B3B3B3" stroke-width="0.274802" stroke-linecap="round" stroke-linejoin="round"/>
<path d="M1098.77 35.9503L1098.07 35.4096L1097.32 34.9936L1096.49 34.7024L1095.66 34.4945L1094.79 34.4529L1093.91 34.5361L1093.04 34.744" stroke="#B3B3B3" stroke-width="0.274802" stroke-linecap="round" stroke-linejoin="round"/>
<path d="M1000.47 42.5638L998.52 51.7145L979.492 47.6382L981.445 38.4875L1000.47 42.5638Z" stroke="#B3B3B3" stroke-width="0.274802" stroke-linecap="round" stroke-linejoin="round"/>
<path d="M1038.57 50.716L1036.62 59.8668L1017.59 55.8322L1019.54 46.6814L1038.57 50.716Z" stroke="#B3B3B3" stroke-width="0.274802" stroke-linecap="round" stroke-linejoin="round"/>
<path d="M1057.64 54.834L1055.69 63.9848L1036.62 59.9086L1038.57 50.7578L1057.64 54.834Z" stroke="#B3B3B3" stroke-width="0.274802" stroke-linecap="round" stroke-linejoin="round"/>
<path d="M1076.67 58.9103L1074.72 68.061L1055.69 63.9848L1057.6 54.834L1076.67 58.9103Z" stroke="#B3B3B3" stroke-width="0.274802" stroke-linecap="round" stroke-linejoin="round"/>
<path d="M1095.7 62.9868L1093.79 72.1376L1074.72 68.1029L1076.67 58.9521L1095.7 62.9868Z" stroke="#B3B3B3" stroke-width="0.274802" stroke-linecap="round" stroke-linejoin="round"/>
<path d="M872.881 14.0299L872.798 13.6141L872.59 13.2396L872.3 12.99L871.967 12.7821L871.552 12.7405L871.136 12.7821L870.804 12.99L870.513 13.2396L870.305 13.6141L870.222 14.0299" stroke="#B3B3B3" stroke-width="0.274802" stroke-linecap="round" stroke-linejoin="round"/>
<path d="M841.346 14.0299L841.263 13.6141L841.056 13.2396L840.765 12.99L840.391 12.7821L840.017 12.7405L839.601 12.7821L839.228 12.99L838.937 13.2396L838.771 13.6141L838.688 14.0299" stroke="#B3B3B3" stroke-width="0.274802" stroke-linecap="round" stroke-linejoin="round"/>
<path d="M811.557 14.0299L811.474 13.6141L811.267 13.2396L810.976 12.99L810.602 12.7821L810.228 12.7405L809.812 12.7821L809.439 12.99L809.148 13.2396L808.981 13.6141L808.898 14.0299" stroke="#B3B3B3" stroke-width="0.274802" stroke-linecap="round" stroke-linejoin="round"/>
<path d="M783.429 14.0299L783.346 13.6141L783.18 13.2396L782.889 12.99L782.516 12.7821L782.1 12.7405L781.684 12.7821L781.352 12.99L781.061 13.2396L780.854 13.6141L780.771 14.0299" stroke="#B3B3B3" stroke-width="0.274802" stroke-linecap="round" stroke-linejoin="round"/>
<path d="M756.922 14.0299L756.839 13.6141L756.631 13.2396L756.341 12.99L755.967 12.7821L755.593 12.7405L755.177 12.7821L754.803 12.99L754.512 13.2396L754.346 13.6141L754.263 14.0299" stroke="#B3B3B3" stroke-width="0.274802" stroke-linecap="round" stroke-linejoin="round"/>
<path d="M731.869 14.0299L731.786 13.6141L731.62 13.2396L731.329 12.99L730.955 12.7821L730.54 12.7405L730.124 12.7821L729.792 12.99L729.501 13.2396L729.294 13.6141L729.21 14.0299" stroke="#B3B3B3" stroke-width="0.274802" stroke-linecap="round" stroke-linejoin="round"/>
<path d="M708.229 14.0299L708.146 13.6141L707.98 13.2396L707.689 12.99L707.315 12.7821L706.899 12.7405L706.525 12.7821L706.151 12.99L705.861 13.2396L705.653 13.6141L705.57 14.0299" stroke="#B3B3B3" stroke-width="0.274802" stroke-linecap="round" stroke-linejoin="round"/>
<path d="M685.918 14.0299L685.835 13.6141L685.669 13.2396L685.378 12.99L685.004 12.7821L684.589 12.7405L684.173 12.7821L683.841 12.99L683.55 13.2396L683.342 13.6141L683.259 14.0299" stroke="#B3B3B3" stroke-width="0.274802" stroke-linecap="round" stroke-linejoin="round"/>
<path d="M664.853 14.0299L664.77 13.6141L664.604 13.2396L664.313 12.99L663.939 12.7821L663.524 12.7405L663.15 12.7821L662.776 12.99L662.485 13.2396L662.277 13.6141L662.236 14.0299" stroke="#B3B3B3" stroke-width="0.274802" stroke-linecap="round" stroke-linejoin="round"/>
<path d="M644.994 14.0299L644.911 13.6141L644.745 13.2396L644.454 12.99L644.08 12.7821L643.664 12.7405L643.249 12.7821L642.917 12.99L642.626 13.2396L642.418 13.6141L642.335 14.0299" stroke="#B3B3B3" stroke-width="0.274802" stroke-linecap="round" stroke-linejoin="round"/>
<path d="M626.256 14.0299L626.173 13.6141L625.965 13.2396L625.674 12.99L625.3 12.7821L624.926 12.7405L624.511 12.7821L624.137 12.99L623.846 13.2396L623.68 13.6141L623.597 14.0299" stroke="#B3B3B3" stroke-width="0.274802" stroke-linecap="round" stroke-linejoin="round"/>
<path d="M608.515 14.0299L608.432 13.6141L608.266 13.2396L607.975 12.99L607.601 12.7821L607.186 12.7405L606.812 12.7821L606.438 12.99L606.147 13.2396L605.939 13.6141L605.898 14.0299" stroke="#B3B3B3" stroke-width="0.274802" stroke-linecap="round" stroke-linejoin="round"/>
<path d="M591.813 14.0299L591.73 13.6141L591.564 13.2396L591.273 12.99L590.899 12.7821L590.484 12.7405L590.11 12.7821L589.736 12.99L589.445 13.2396L589.237 13.6141L589.196 14.0299" stroke="#B3B3B3" stroke-width="0.274802" stroke-linecap="round" stroke-linejoin="round"/>
<path d="M576.025 14.0299L575.984 13.6141L575.776 13.2396L575.485 12.99L575.111 12.7821L574.696 12.7405L574.322 12.7821L573.948 12.99L573.657 13.2396L573.449 13.6141L573.408 14.0299" stroke="#B3B3B3" stroke-width="0.274802" stroke-linecap="round" stroke-linejoin="round"/>
<path d="M561.151 14.0299L561.11 13.6141L560.902 13.2396L560.611 12.99L560.237 12.7821L559.863 12.7405L559.448 12.7821L559.074 12.99L558.783 13.2396L558.575 13.6141L558.534 14.0299" stroke="#B3B3B3" stroke-width="0.274802" stroke-linecap="round" stroke-linejoin="round"/>
<path d="M547.108 14.0299L547.025 13.6141L546.859 13.2396L546.568 12.99L546.194 12.7821L545.779 12.7405L545.405 12.7821L545.031 12.99L544.74 13.2396L544.532 13.6141L544.449 14.0299" stroke="#B3B3B3" stroke-width="0.274802" stroke-linecap="round" stroke-linejoin="round"/>
<path d="M533.855 14.0299L533.772 13.6141L533.605 13.2396L533.273 12.99L532.941 12.7821L532.525 12.7405L532.11 12.7821L531.777 12.99L531.487 13.2396L531.279 13.6141L531.196 14.0299" stroke="#B3B3B3" stroke-width="0.274802" stroke-linecap="round" stroke-linejoin="round"/>
<path d="M521.349 14.0299L521.266 13.6141L521.058 13.2396L520.767 12.99L520.393 12.7821L520.019 12.7405L519.604 12.7821L519.23 12.99L518.939 13.2396L518.773 13.6141L518.69 14.0299" stroke="#B3B3B3" stroke-width="0.274802" stroke-linecap="round" stroke-linejoin="round"/>
<path d="M509.508 14.0299L509.425 13.6141L509.258 13.2396L508.926 12.99L508.594 12.7821L508.178 12.7405L507.763 12.7821L507.43 12.99L507.139 13.2396L506.932 13.6141L506.849 14.0299" stroke="#B3B3B3" stroke-width="0.274802" stroke-linecap="round" stroke-linejoin="round"/>
<path d="M498.332 14.0299L498.29 13.6141L498.083 13.2396L497.792 12.99L497.418 12.7821L497.002 12.7405L496.628 12.7821L496.254 12.99L495.964 13.2396L495.756 13.6141L495.714 14.0299" stroke="#B3B3B3" stroke-width="0.274802" stroke-linecap="round" stroke-linejoin="round"/>
<path d="M487.82 14.0299L487.737 13.6141L487.571 13.2396L487.28 12.99L486.906 12.7821L486.491 12.7405L486.117 12.7821L485.743 12.99L485.452 13.2396L485.244 13.6141L485.203 14.0299" stroke="#B3B3B3" stroke-width="0.274802" stroke-linecap="round" stroke-linejoin="round"/>
</svg>
